<svg viewBox="0 0 34 34" fill="currentColor"><path d="M29.013 13.68c-1.385 3.536-1.281 7.075.017 10.735l-.79-.383c-2.876-1.382-5.903-2.248-9.187-2.13-2.875.102-5.519.845-7.743 2.588a3.39 3.39 0 0 0-.728.777c-.116.174-.206.411-.119.574.115.197.416.232.635.244.462.024.494.001 1.01-.068l6.22-1.618a22.41 22.41 0 0 1-2.177 1.25l-.032.019v-.003c-1.553.772-3.214 1.347-5.034 1.63a7.497 7.497 0 0 1-1.932.036c-.956-.103-1.321-.658-1.048-1.509.327-1.015.963-1.858 1.88-2.509 1.751-1.242 3.789-1.845 5.94-2.153 3.797-.544 7.462-.101 10.99 1.289.109.042.218.08.418.153-.627-3.21-.024-6.152 1.68-8.921Zm.726-7.406c2.664.865 4.46 3.24 4.243 5.645-.112 1.235-.677 2.32-1.474 3.297-.582.713-1.242 1.371-1.843 2.072-.216.253-.414.544-.519.847-.13.376-.174.847.274 1.042.225.097.609-.11.903-.176.072 1.007-1.261 1.52-2.05 1.181-.28-.12-.602-.525-.581-.779.043-.537.2-1.112.492-1.577.405-.644.98-1.199 1.475-1.796.993-1.195 1.81-2.456 1.947-4.006.218-2.456-2.2-4.899-4.747-4.764 0 .03-.014.069.002.086 1.173 1.292.656 2.609-.444 3.472-1.859 1.46-4.05 1.834-6.347 1.24-1.482-.383-2.865-1.081-4.3-1.625a160.9 160.9 0 0 1-1.058-.406l-1.057-.41c-1.292-.5-2.587-.994-3.909-1.42-1.69-.543-3.479-.764-5.244-.247-2.24.657-3.554 2.14-4 4.199-.407 1.88.257 3.495 1.91 4.707 1.146.84 2.479 1.117 3.936.917-2.024-.407-3.557-1.352-4.326-3.171a9.24 9.24 0 0 0 3.238 1.72c.911.273 1.693.334 2.182-.636-1.693-1.059-2.636-2.561-2.727-4.5.834 1.74 2.08 3.003 3.889 3.857a17.672 17.672 0 0 1-.03-1.007v-.32l.002-.213.002-.107c.011-.864.05-1.646.08-1.651.04.101.089.2.12.303.29.942.717 1.822 1.406 2.58.1.11.25.227.396.256.114.023.67.137 1.432.289l.122.024c.679.135 1.503.297 2.318.45l.222.042c.59.11 1.167.215 1.67.3 2.792.409 4.095-.995 4.274-.976l-.944 1.26c1.44.07 2.802-.14 4.15-.62-.141.083-.279.172-.424.249-1.974 1.034-4.102 1.366-6.335 1.078-1.844-.239-3.673-.575-5.516-.824-4.532-.641-4.407 5.344-4.74 7.428-.026.165-.08.326-.12.488l-.126-.006V19.5c-.889-.094-1.7-.107-2.47-.275-4.88-1.06-6.721-6.453-3.442-10.03 2.214-2.414 5.688-3.39 9.046-2.37 2.592.788 5.105 1.789 7.671 2.649 1.216.407 2.458.78 3.72 1.035 1.525.308 2.892-.042 3.9-1.217a3.23 3.23 0 0 1 .037-.044l.04-.044c.222-.254.46-.536.25-.874-.258-.415-.74-.332-1.158-.256-.79.144-1.395.558-1.858 1.158.762-2.508 3.71-3.844 6.44-2.958Z"/></svg>